<svg aria-hidden="true" style="position: absolute; width: 0; height: 0; overflow: hidden;" version="1.1" xmlns="http://www.w3.org/2000/svg" xmlns:xlink="http://www.w3.org/1999/xlink">
<defs>
<symbol id="icon-logo" viewBox="0 0 41 24">
<path fill="#173d33" style="fill: var(--color1, #173d33)" d="M28.44 17.080c-0.087-0.205-7.188-14.080-7.304-14.272-0.259-0.601-0.621-1.112-1.067-1.534l-0.002-0.002c-0.446-0.422-0.979-0.758-1.568-0.978l-0.032-0.010c-0.477-0.179-1.028-0.282-1.603-0.282-0.762 0-1.481 0.182-2.117 0.504l0.027-0.012c-0.568 0.283-1.071 0.68-1.476 1.163-0.663 0.78-1.067 1.798-1.067 2.911 0 0.87 0.247 1.683 0.674 2.372l-0.011-0.019c0.087 0.205 6.883 13.487 7 13.677 0.085 0.205 0.187 0.404 0.304 0.595 0.245 0.58 0.608 1.103 1.067 1.537 0.836 0.785 1.965 1.268 3.207 1.268 0.761 0 1.479-0.181 2.115-0.503l-0.027 0.012c0.569-0.283 1.072-0.68 1.477-1.163 0.662-0.78 1.065-1.798 1.065-2.91 0-0.871-0.247-1.684-0.675-2.374l0.011 0.019z"></path>
<path fill="#97d28b" style="fill: var(--color2, #97d28b)" d="M20.24 7.691c0.435-0.457 0.769-1 0.984-1.589 0.17-0.456 0.269-0.983 0.269-1.533 0-0.77-0.193-1.495-0.534-2.13l0.012 0.024c-0.304-0.571-0.704-1.050-1.183-1.436l-0.009-0.007c-0.793-0.633-1.81-1.016-2.916-1.016-0.896 0-1.733 0.251-2.445 0.686l0.021-0.012c-0.548 0.335-1.005 0.762-1.364 1.265l-0.009 0.014c-0.153 0.16-11.683 14.173-11.811 14.353-0.422 0.442-0.757 0.971-0.975 1.558l-0.010 0.032c-0.17 0.456-0.269 0.983-0.269 1.533 0 0.77 0.193 1.495 0.534 2.13l-0.012-0.024c0.292 0.556 0.699 1.048 1.192 1.443 0.793 0.633 1.809 1.016 2.916 1.016 0.896 0 1.733-0.251 2.445-0.687l-0.021 0.012c0.548-0.335 1.005-0.762 1.364-1.265l0.009-0.014c0.153-0.16 11.683-14.173 11.811-14.353zM40.080 7.691c0.435-0.457 0.771-1 0.984-1.589 0.171-0.457 0.269-0.984 0.269-1.535 0-0.77-0.193-1.494-0.533-2.128l0.012 0.024c-0.305-0.571-0.705-1.050-1.184-1.436l-0.009-0.007c-0.793-0.633-1.81-1.016-2.916-1.016-0.896 0-1.733 0.251-2.445 0.686l0.021-0.012c-0.548 0.335-1.005 0.762-1.364 1.265l-0.009 0.014c-0.152 0.16-11.683 14.173-11.811 14.353-0.422 0.442-0.756 0.971-0.974 1.558l-0.010 0.032c-0.171 0.457-0.27 0.985-0.27 1.536 0 0.769 0.193 1.493 0.532 2.127l-0.012-0.024c0.293 0.556 0.7 1.048 1.195 1.443 0.793 0.633 1.81 1.016 2.916 1.016 0.896 0 1.733-0.251 2.445-0.686l-0.021 0.012c0.548-0.335 1.005-0.762 1.364-1.265l0.009-0.014c0.152-0.16 11.683-14.173 11.811-14.353z"></path>
</symbol>
<symbol id="icon-close" viewBox="0 0 32 32">
<path fill="none"  stroke-linejoin="round" stroke-linecap="round" stroke-miterlimit="4" stroke-width="2.4" d="M9.333 9.333l13.334 13.333M9.334 22.666l13.333-13.333"></path>
</symbol>
<symbol id="icon-arrow-up" viewBox="0 0 32 32">
<path fill="none" stroke-linejoin="round" stroke-linecap="round" stroke-miterlimit="10" stroke-width="2" d="M7.906 12.76l8.093-8.093 8.093 8.093"></path>
<path stroke-linejoin="round" stroke-linecap="round" stroke-miterlimit="10" stroke-width="2" d="M16 27.333v-22.44"></path>
</symbol>
<symbol id="icon-arrow-right-up" viewBox="0 0 30 32">
<path fill="none"  stroke-linejoin="round" stroke-linecap="round" stroke-miterlimit="10" stroke-width="1.8824" d="M11.829 8.456h10.773v10.773M7.518 23.541l14.933-14.935"></path>
</symbol>
<symbol id="icon-arrow-right" viewBox="0 0 32 32">
<path stroke-linejoin="round" stroke-linecap="round" stroke-miterlimit="10" stroke-width="1.8824" d="M19.049 8.382l7.618 7.618-7.618 7.616M5.333 16h21.12"></path>
</symbol>
<symbol id="icon-arrow-right" viewBox="0 0 32 32">
<path stroke-linejoin="round" stroke-linecap="round" stroke-miterlimit="10" stroke-width="1.8824" d="M19.049 8.382l7.618 7.618-7.618 7.616M5.333 16h21.12"></path>
</symbol>
<symbol id="icon-arrow-right-green" viewBox="0 0 31 32">
<path fill="#97d28b" style="fill: var(--color1, #97d28b)" d="M15.515 0.485c8.569 0 15.515 6.946 15.515 15.515s-6.946 15.515-15.515 15.515c-8.569 0-15.515-6.946-15.515-15.515s6.946-15.515 15.515-15.515z"></path>
<path fill="none" stroke="#173d33" style="stroke: var(--color2, #173d33)" stroke-linejoin="round" stroke-linecap="round" stroke-miterlimit="10" stroke-width="0.9697" d="M17.086 12.076l3.924 3.924-3.924 3.924M10.021 16h10.88"></path>
</symbol>

<symbol id="icon-call" viewBox="0 0 32 32">
<path stroke-linejoin="miter" stroke-linecap="butt" stroke-miterlimit="10" stroke-width="2" d="M29.293 24.44c0 0.48-0.107 0.973-0.333 1.453s-0.52 0.933-0.907 1.36c-0.653 0.72-1.373 1.24-2.187 1.573-0.8 0.333-1.667 0.507-2.6 0.507-1.36 0-2.813-0.32-4.347-0.973s-3.067-1.533-4.587-2.64c-1.617-1.19-3.045-2.414-4.376-3.736l0.002 0.002c-1.316-1.324-2.536-2.747-3.647-4.255l-0.073-0.105c-1.093-1.52-1.973-3.040-2.613-4.547-0.64-1.52-0.96-2.973-0.96-4.36 0-0.907 0.16-1.773 0.48-2.573 0.32-0.813 0.827-1.56 1.533-2.227 0.853-0.84 1.787-1.253 2.773-1.253 0.373 0 0.747 0.080 1.080 0.24 0.347 0.16 0.653 0.4 0.893 0.747l3.093 4.36c0.24 0.333 0.413 0.64 0.533 0.933 0.12 0.28 0.187 0.56 0.187 0.813 0 0.32-0.093 0.64-0.28 0.947-0.173 0.307-0.427 0.627-0.747 0.947l-1.013 1.053c-0.147 0.147-0.213 0.32-0.213 0.533 0 0.107 0.013 0.2 0.040 0.307 0.040 0.107 0.080 0.187 0.107 0.267 0.24 0.44 0.653 1.013 1.24 1.707 0.6 0.693 1.24 1.4 1.933 2.107 0.72 0.707 1.413 1.36 2.12 1.96 0.693 0.587 1.267 0.987 1.72 1.227 0.067 0.027 0.147 0.067 0.24 0.107 0.107 0.040 0.213 0.053 0.333 0.053 0.227 0 0.4-0.080 0.547-0.227l1.013-1c0.333-0.333 0.653-0.587 0.96-0.747 0.307-0.187 0.613-0.28 0.947-0.28 0.253 0 0.52 0.053 0.813 0.173s0.6 0.293 0.933 0.52l4.413 3.133c0.347 0.24 0.587 0.52 0.733 0.853 0.133 0.333 0.213 0.667 0.213 1.040z"></path>
</symbol>
<symbol id="icon-facebook" viewBox="0 0 32 32">
<path d="M18.667 12.4v3.867h3.467c0.267 0 0.4 0.267 0.4 0.533l-0.533 2.533c0 0.133-0.267 0.267-0.4 0.267h-2.933v9.733h-4v-9.6h-2.267c-0.267 0-0.4-0.133-0.4-0.4v-2.533c0-0.267 0.133-0.4 0.4-0.4h2.267v-4.4c0-2.267 1.733-4 4-4h3.6c0.267 0 0.4 0.133 0.4 0.4v3.2c0 0.267-0.133 0.4-0.4 0.4h-3.2c-0.267 0-0.4 0.133-0.4 0.4z"></path>
<path fill="none"   stroke-linejoin="round" stroke-linecap="round" stroke-miterlimit="4" stroke-width="2" d="M20 29.333h-8c-6.667 0-9.333-2.667-9.333-9.333v-8c0-6.667 2.667-9.333 9.333-9.333h8c6.667 0 9.333 2.667 9.333 9.333v8c0 6.667-2.667 9.333-9.333 9.333z"></path>
</symbol>
<symbol id="icon-instagram" viewBox="0 0 32 32">
<path stroke-linejoin="round" stroke-linecap="round" stroke-miterlimit="4" stroke-width="2" d="M12 29.333h8c6.667 0 9.333-2.667 9.333-9.333v-8c0-6.667-2.667-9.333-9.333-9.333h-8c-6.667 0-9.333 2.667-9.333 9.333v8c0 6.667 2.667 9.333 9.333 9.333z"></path>
<path stroke-linejoin="round" stroke-linecap="round" stroke-miterlimit="4" stroke-width="2" d="M16 20.667c2.577 0 4.667-2.089 4.667-4.667s-2.089-4.667-4.667-4.667v0c-2.577 0-4.667 2.089-4.667 4.667s2.089 4.667 4.667 4.667v0z"></path>
<path stroke-linejoin="round" stroke-linecap="round" stroke-miterlimit="4" stroke-width="2.6667" d="M23.515 9.333h0.016"></path>
</symbol>
<symbol id="icon-map" viewBox="0 0 32 32">
<path stroke-linejoin="round" stroke-linecap="round" stroke-miterlimit="4" stroke-width="2" d="M3.053 10.373v12.973c0 2.533 1.8 3.573 3.987 2.32l3.133-1.787c0.68-0.387 1.813-0.427 2.52-0.067l7 3.507c0.707 0.347 1.84 0.32 2.52-0.067l5.773-3.307c0.733-0.427 1.347-1.467 1.347-2.32v-12.973c0-2.533-1.8-3.573-3.987-2.32l-3.133 1.787c-0.68 0.387-1.813 0.427-2.52 0.067l-7-3.493c-0.707-0.347-1.84-0.32-2.52 0.067l-5.773 3.307c-0.747 0.427-1.347 1.467-1.347 2.307zM11.413 5.333v17.333M20.973 8.827v17.84"></path>
</symbol>
<symbol id="icon-menu" viewBox="0 0 32 32">
<path stroke-linejoin="miter" stroke-linecap="round" stroke-miterlimit="4" stroke-width="1.8824" d="M4.706 9.726h22.588M4.706 16h22.588M4.706 22.274h22.588"></path>
</symbol>
<symbol id="icon-sms" viewBox="0 0 32 32">
<path stroke-linejoin="round" stroke-linecap="round" stroke-miterlimit="10" stroke-width="2" d="M22.667 27.333h-13.333c-4 0-6.667-2-6.667-6.667v-9.333c0-4.667 2.667-6.667 6.667-6.667h13.333c4 0 6.667 2 6.667 6.667v9.333c0 4.667-2.667 6.667-6.667 6.667z"></path>
<path stroke-linejoin="round" stroke-linecap="round" stroke-miterlimit="10" stroke-width="2" d="M22.667 12l-4.173 3.333c-1.373 1.093-3.627 1.093-5 0l-4.16-3.333"></path>
</symbol>
<symbol id="icon-minus" viewBox="0 0 32 32">
<path stroke-linejoin="round" stroke="#173D33" stroke-linecap="round" stroke-miterlimit="4" stroke-width="3" d="M8 16h16"></path>
</symbol>
<symbol id="icon-add" viewBox="0 0 32 32">
<path fill="none" stroke="#97d28b" style="stroke: var(--color1, #97d28b)" stroke-linejoin="round" stroke-linecap="round" stroke-miterlimit="4" stroke-width="1.7143" d="M8 16h16M16 24v-16"></path>
</symbol>
<symbol id="add" viewBox="0 0 32 32">
<path fill="none" stroke="#97d28b" style="stroke: var(--color1, #97d28b)" stroke-linejoin="round" stroke-linecap="round" stroke-miterlimit="4" stroke-width="3" d="M8 16h16"></path>
<path fill="none" stroke="#97d28b" style="stroke: var(--color1, #97d28b)" stroke-linejoin="round" stroke-linecap="round" stroke-miterlimit="4" stroke-width="3" d="M16 24v-16"></path>
</symbol>
<symbol id="cpu-charge" viewBox="0 0 32 32">
<path stroke-linejoin="round" stroke-linecap="round" stroke-miterlimit="4" stroke-width="2" d="M12.8 26.668h6.4c5.334 0 7.466-2.134 7.466-7.468v-6.4c0-5.332-2.132-7.466-7.466-7.466h-6.4c-5.334 0-7.468 2.134-7.468 7.466v6.4c0 5.334 2.134 7.468 7.468 7.468z"></path>
<path stroke-linejoin="round" stroke-linecap="round" stroke-miterlimit="4" stroke-width="2" d="M14 22.668h4c3.332 0 4.666-1.334 4.666-4.668v-4c0-3.332-1.334-4.666-4.666-4.666h-4c-3.334 0-4.666 1.334-4.666 4.666v4c0 3.334 1.332 4.668 4.666 4.668zM10.68 5.332v-2.666M16 5.332v-2.666M21.332 5.332v-2.666M26.668 10.666h2.666M26.668 16h2.666M26.668 21.334h2.666M21.332 26.666v2.666M16.014 26.666v2.666M10.68 26.666v2.666M2.666 10.666h2.668M2.666 16h2.668M2.666 21.334h2.668"></path>
<path stroke-linejoin="round" stroke-linecap="round" stroke-miterlimit="4" stroke-width="2" d="M16 12.934l-1.254 2.186c-0.28 0.48-0.052 0.88 0.508 0.88h1.492c0.56 0 0.788 0.4 0.508 0.88l-1.254 2.186"></path>
</symbol>
<symbol id="global-edit" viewBox="0 0 32 32">
<path stroke-linejoin="round" stroke-linecap="round" stroke-miterlimit="4" stroke-width="2" d="M29.334 16c-0.002-7.363-5.971-13.332-13.334-13.334h-0c-7.363 0.003-13.331 5.971-13.334 13.334v0c0.003 7.362 5.971 13.33 13.334 13.332h0"></path>
<path stroke-linejoin="round" stroke-linecap="round" stroke-miterlimit="4" stroke-width="2" d="M10.668 4h1.332c-1.236 3.581-1.95 7.707-1.95 12s0.714 8.419 2.029 12.267l-0.079-0.267h-1.332M20 4c1.294 3.894 1.946 7.946 1.946 12"></path>
<path stroke-linejoin="round" stroke-linecap="round" stroke-miterlimit="4" stroke-width="2" d="M4 21.334v-1.334c3.894 1.294 7.946 1.946 12 1.946M4 12c7.786-2.6 16.214-2.6 24 0"></path>
<path stroke-linejoin="round" stroke-linecap="round" stroke-miterlimit="10" stroke-width="2" d="M25.612 20.986l-4.72 4.72c-0.196 0.213-0.337 0.481-0.398 0.777l-0.002 0.011-0.252 1.8c-0.094 0.652 0.36 1.106 1.014 1.012l1.8-0.252c0.307-0.060 0.574-0.202 0.787-0.401l-0.001 0.001 4.72-4.72c0.814-0.814 1.2-1.76 0-2.96-1.186-1.188-2.134-0.8-2.946 0.012z"></path>
<path stroke-linejoin="round" stroke-linecap="round" stroke-miterlimit="10" stroke-width="2" d="M24.932 21.666c0.4 1.44 1.52 2.56 2.96 2.96"></path>
</symbol>
<symbol id="maximize-circle" viewBox="0 0 32 32">
<path stroke-linejoin="round" stroke-linecap="round" stroke-miterlimit="4" stroke-width="2" d="M22.668 4h5.332v5.334M20 12l8-8M9.334 28h-5.334v-5.334M12 20l-8 8M18.694 2.932c-0.81-0.169-1.74-0.266-2.693-0.266-0 0-0 0-0.001 0h0c-7.365 0.003-13.334 5.975-13.334 13.34 0 0.942 0.098 1.86 0.283 2.747l-0.015-0.087M13.306 29.068c0.81 0.169 1.741 0.266 2.694 0.266h0c7.365-0.003 13.334-5.975 13.334-13.34 0-0.942-0.098-1.86-0.283-2.747l0.015 0.087"></path>
</symbol>
<symbol id="ranking" viewBox="0 0 32 32">
<path stroke-linejoin="round" stroke-linecap="round" stroke-miterlimit="10" stroke-width="2" d="M11.56 18.666h-6.226c-1.466 0-2.666 1.2-2.666 2.666v8h8.892v-10.666z"></path>
<path stroke-linejoin="round" stroke-linecap="round" stroke-miterlimit="10" stroke-width="2" d="M17.774 13.334h-3.56c-1.468 0-2.668 1.2-2.668 2.666v13.334h8.894v-13.334c0-1.466-1.186-2.666-2.666-2.666zM26.668 22.666h-6.228v6.666h8.894v-4c0-1.466-1.2-2.666-2.666-2.666z"></path>
<path stroke-linejoin="round" stroke-linecap="round" stroke-miterlimit="4" stroke-width="2" d="M16.694 2.76l0.706 1.414c0.094 0.2 0.346 0.386 0.56 0.412l1.28 0.214c0.814 0.134 1.014 0.734 0.426 1.306l-1 1c-0.139 0.151-0.224 0.354-0.224 0.576 0 0.051 0.004 0.101 0.013 0.149l-0.001-0.005 0.28 1.228c0.226 0.972-0.294 1.346-1.148 0.84l-1.2-0.708c-0.114-0.063-0.249-0.1-0.393-0.1s-0.279 0.037-0.397 0.102l0.004-0.002-1.2 0.708c-0.854 0.506-1.374 0.132-1.146-0.84l0.28-1.228c0.008-0.044 0.013-0.094 0.013-0.146 0-0.222-0.086-0.424-0.227-0.575l0 0-0.986-0.986c-0.588-0.586-0.4-1.174 0.426-1.306l1.28-0.214c0.24-0.058 0.438-0.208 0.558-0.41l0.002-0.004 0.706-1.412c0.388-0.774 1-0.774 1.388-0.014z"></path>
</symbol>
<symbol id="arrow-down" viewBox="0 0 18 16">
<path stroke-linejoin="round" stroke-linecap="round" stroke-miterlimit="10" stroke-width="1.4827" d="M12.935 9.44l-4.046 3.596-4.048-3.596M8.889 2.964v9.973"></path>
</symbol>
<symbol id="icon-go-contact" viewBox="0 0 30 32">
<path  d="M29.867 16c0 8.247-6.686 14.933-14.933 14.933s-14.933-6.686-14.933-14.933c0-8.247 6.686-14.933 14.933-14.933s14.933 6.686 14.933 14.933z"></path>
<path fill="none" stroke="#173d33" style="stroke: var(--color2, #173d33)" stroke-linejoin="round" stroke-linecap="round" stroke-miterlimit="10" stroke-width="1.7784" d="M19.789 17.728l-4.856 4.316-4.856-4.316"></path>
<path fill="none" stroke="#173d33" style="stroke: var(--color2, #173d33)" stroke-linejoin="round" stroke-linecap="round" stroke-miterlimit="10" stroke-width="1.7784" d="M14.932 9.956v11.968"></path>
</symbol>
</defs>
</svg>
