<svg aria-hidden="true" style="position: absolute; width: 0; height: 0; overflow: hidden;" version="1.1" xmlns="http://www.w3.org/2000/svg" xmlns:xlink="http://www.w3.org/1999/xlink">
<defs>
<symbol id="icon-logo" viewBox="0 0 41 24">
<path fill="#173d33" style="fill: var(--color1, #173d33)" d="M28.44 17.080c-0.087-0.205-7.188-14.080-7.304-14.272-0.259-0.601-0.621-1.112-1.067-1.534l-0.002-0.002c-0.446-0.422-0.979-0.758-1.568-0.978l-0.032-0.010c-0.477-0.179-1.028-0.282-1.603-0.282-0.762 0-1.481 0.182-2.117 0.504l0.027-0.012c-0.568 0.283-1.071 0.68-1.476 1.163-0.663 0.78-1.067 1.798-1.067 2.911 0 0.87 0.247 1.683 0.674 2.372l-0.011-0.019c0.087 0.205 6.883 13.487 7 13.677 0.085 0.205 0.187 0.404 0.304 0.595 0.245 0.58 0.608 1.103 1.067 1.537 0.836 0.785 1.965 1.268 3.207 1.268 0.761 0 1.479-0.181 2.115-0.503l-0.027 0.012c0.569-0.283 1.072-0.68 1.477-1.163 0.662-0.78 1.065-1.798 1.065-2.91 0-0.871-0.247-1.684-0.675-2.374l0.011 0.019z"></path>
<path fill="#97d28b" style="fill: var(--color2, #97d28b)" d="M20.24 7.691c0.435-0.457 0.769-1 0.984-1.589 0.17-0.456 0.269-0.983 0.269-1.533 0-0.77-0.193-1.495-0.534-2.13l0.012 0.024c-0.304-0.571-0.704-1.050-1.183-1.436l-0.009-0.007c-0.793-0.633-1.81-1.016-2.916-1.016-0.896 0-1.733 0.251-2.445 0.686l0.021-0.012c-0.548 0.335-1.005 0.762-1.364 1.265l-0.009 0.014c-0.153 0.16-11.683 14.173-11.811 14.353-0.422 0.442-0.757 0.971-0.975 1.558l-0.010 0.032c-0.17 0.456-0.269 0.983-0.269 1.533 0 0.77 0.193 1.495 0.534 2.13l-0.012-0.024c0.292 0.556 0.699 1.048 1.192 1.443 0.793 0.633 1.809 1.016 2.916 1.016 0.896 0 1.733-0.251 2.445-0.687l-0.021 0.012c0.548-0.335 1.005-0.762 1.364-1.265l0.009-0.014c0.153-0.16 11.683-14.173 11.811-14.353zM40.080 7.691c0.435-0.457 0.771-1 0.984-1.589 0.171-0.457 0.269-0.984 0.269-1.535 0-0.77-0.193-1.494-0.533-2.128l0.012 0.024c-0.305-0.571-0.705-1.050-1.184-1.436l-0.009-0.007c-0.793-0.633-1.81-1.016-2.916-1.016-0.896 0-1.733 0.251-2.445 0.686l0.021-0.012c-0.548 0.335-1.005 0.762-1.364 1.265l-0.009 0.014c-0.152 0.16-11.683 14.173-11.811 14.353-0.422 0.442-0.756 0.971-0.974 1.558l-0.010 0.032c-0.171 0.457-0.27 0.985-0.27 1.536 0 0.769 0.193 1.493 0.532 2.127l-0.012-0.024c0.293 0.556 0.7 1.048 1.195 1.443 0.793 0.633 1.81 1.016 2.916 1.016 0.896 0 1.733-0.251 2.445-0.686l-0.021 0.012c0.548-0.335 1.005-0.762 1.364-1.265l0.009-0.014c0.152-0.16 11.683-14.173 11.811-14.353z"></path>
</symbol>
<symbol id="icon-close" viewBox="0 0 32 32">
<path fill="none" stroke="#fff" style="stroke: var(--color1, #fff)" stroke-linejoin="round" stroke-linecap="round" stroke-miterlimit="4" stroke-width="2.4" d="M9.333 9.333l13.334 13.333M9.334 22.666l13.333-13.333"></path>
</symbol>
<symbol id="icon-arrow-right-up" viewBox="0 0 30 32">
<path fill="none" stroke="#fff" style="stroke: var(--color1, #fff)" stroke-linejoin="round" stroke-linecap="round" stroke-miterlimit="10" stroke-width="1.8824" d="M11.829 8.456h10.773v10.773M7.518 23.541l14.933-14.935"></path>
</symbol>
<symbol id="icon-arrow-right" viewBox="0 0 32 32">
<path stroke-linejoin="round" stroke-linecap="round" stroke-miterlimit="10" stroke-width="1.8824" d="M19.049 8.382l7.618 7.618-7.618 7.616M5.333 16h21.12"></path>
</symbol>
<symbol id="icon-arrow-right" viewBox="0 0 32 32">
<path stroke-linejoin="round" stroke-linecap="round" stroke-miterlimit="10" stroke-width="1.8824" d="M19.049 8.382l7.618 7.618-7.618 7.616M5.333 16h21.12"></path>
</symbol>
<symbol id="icon-arrow-right-green" viewBox="0 0 31 32">
<path fill="#97d28b" style="fill: var(--color1, #97d28b)" d="M15.515 0.485c8.569 0 15.515 6.946 15.515 15.515s-6.946 15.515-15.515 15.515c-8.569 0-15.515-6.946-15.515-15.515s6.946-15.515 15.515-15.515z"></path>
<path fill="none" stroke="#173d33" style="stroke: var(--color2, #173d33)" stroke-linejoin="round" stroke-linecap="round" stroke-miterlimit="10" stroke-width="0.9697" d="M17.086 12.076l3.924 3.924-3.924 3.924M10.021 16h10.88"></path>
</symbol>
<symbol id="icon-call" viewBox="0 0 32 32">
<path stroke-linejoin="miter" stroke-linecap="butt" stroke-miterlimit="10" stroke-width="2" d="M29.293 24.44c0 0.48-0.107 0.973-0.333 1.453s-0.52 0.933-0.907 1.36c-0.653 0.72-1.373 1.24-2.187 1.573-0.8 0.333-1.667 0.507-2.6 0.507-1.36 0-2.813-0.32-4.347-0.973s-3.067-1.533-4.587-2.64c-1.617-1.19-3.045-2.414-4.376-3.736l0.002 0.002c-1.316-1.324-2.536-2.747-3.647-4.255l-0.073-0.105c-1.093-1.52-1.973-3.040-2.613-4.547-0.64-1.52-0.96-2.973-0.96-4.36 0-0.907 0.16-1.773 0.48-2.573 0.32-0.813 0.827-1.56 1.533-2.227 0.853-0.84 1.787-1.253 2.773-1.253 0.373 0 0.747 0.080 1.080 0.24 0.347 0.16 0.653 0.4 0.893 0.747l3.093 4.36c0.24 0.333 0.413 0.64 0.533 0.933 0.12 0.28 0.187 0.56 0.187 0.813 0 0.32-0.093 0.64-0.28 0.947-0.173 0.307-0.427 0.627-0.747 0.947l-1.013 1.053c-0.147 0.147-0.213 0.32-0.213 0.533 0 0.107 0.013 0.2 0.040 0.307 0.040 0.107 0.080 0.187 0.107 0.267 0.24 0.44 0.653 1.013 1.24 1.707 0.6 0.693 1.24 1.4 1.933 2.107 0.72 0.707 1.413 1.36 2.12 1.96 0.693 0.587 1.267 0.987 1.72 1.227 0.067 0.027 0.147 0.067 0.24 0.107 0.107 0.040 0.213 0.053 0.333 0.053 0.227 0 0.4-0.080 0.547-0.227l1.013-1c0.333-0.333 0.653-0.587 0.96-0.747 0.307-0.187 0.613-0.28 0.947-0.28 0.253 0 0.52 0.053 0.813 0.173s0.6 0.293 0.933 0.52l4.413 3.133c0.347 0.24 0.587 0.52 0.733 0.853 0.133 0.333 0.213 0.667 0.213 1.040z"></path>
</symbol>
<symbol id="icon-facebook" viewBox="0 0 32 32">
<path d="M18.667 12.4v3.867h3.467c0.267 0 0.4 0.267 0.4 0.533l-0.533 2.533c0 0.133-0.267 0.267-0.4 0.267h-2.933v9.733h-4v-9.6h-2.267c-0.267 0-0.4-0.133-0.4-0.4v-2.533c0-0.267 0.133-0.4 0.4-0.4h2.267v-4.4c0-2.267 1.733-4 4-4h3.6c0.267 0 0.4 0.133 0.4 0.4v3.2c0 0.267-0.133 0.4-0.4 0.4h-3.2c-0.267 0-0.4 0.133-0.4 0.4z"></path>
<path fill="none"   stroke-linejoin="round" stroke-linecap="round" stroke-miterlimit="4" stroke-width="2" d="M20 29.333h-8c-6.667 0-9.333-2.667-9.333-9.333v-8c0-6.667 2.667-9.333 9.333-9.333h8c6.667 0 9.333 2.667 9.333 9.333v8c0 6.667-2.667 9.333-9.333 9.333z"></path>
</symbol>
<symbol id="icon-instagram" viewBox="0 0 32 32">
<path stroke-linejoin="round" stroke-linecap="round" stroke-miterlimit="4" stroke-width="2" d="M12 29.333h8c6.667 0 9.333-2.667 9.333-9.333v-8c0-6.667-2.667-9.333-9.333-9.333h-8c-6.667 0-9.333 2.667-9.333 9.333v8c0 6.667 2.667 9.333 9.333 9.333z"></path>
<path stroke-linejoin="round" stroke-linecap="round" stroke-miterlimit="4" stroke-width="2" d="M16 20.667c2.577 0 4.667-2.089 4.667-4.667s-2.089-4.667-4.667-4.667v0c-2.577 0-4.667 2.089-4.667 4.667s2.089 4.667 4.667 4.667v0z"></path>
<path stroke-linejoin="round" stroke-linecap="round" stroke-miterlimit="4" stroke-width="2.6667" d="M23.515 9.333h0.016"></path>
</symbol>
<symbol id="icon-map" viewBox="0 0 32 32">
<path stroke-linejoin="round" stroke-linecap="round" stroke-miterlimit="4" stroke-width="2" d="M3.053 10.373v12.973c0 2.533 1.8 3.573 3.987 2.32l3.133-1.787c0.68-0.387 1.813-0.427 2.52-0.067l7 3.507c0.707 0.347 1.84 0.32 2.52-0.067l5.773-3.307c0.733-0.427 1.347-1.467 1.347-2.32v-12.973c0-2.533-1.8-3.573-3.987-2.32l-3.133 1.787c-0.68 0.387-1.813 0.427-2.52 0.067l-7-3.493c-0.707-0.347-1.84-0.32-2.52 0.067l-5.773 3.307c-0.747 0.427-1.347 1.467-1.347 2.307zM11.413 5.333v17.333M20.973 8.827v17.84"></path>
</symbol>
<symbol id="icon-menu" viewBox="0 0 32 32">
<path stroke-linejoin="miter" stroke-linecap="round" stroke-miterlimit="4" stroke-width="1.8824" d="M4.706 9.726h22.588M4.706 16h22.588M4.706 22.274h22.588"></path>
</symbol>
<symbol id="icon-sms" viewBox="0 0 32 32">
<path stroke-linejoin="round" stroke-linecap="round" stroke-miterlimit="10" stroke-width="2" d="M22.667 27.333h-13.333c-4 0-6.667-2-6.667-6.667v-9.333c0-4.667 2.667-6.667 6.667-6.667h13.333c4 0 6.667 2 6.667 6.667v9.333c0 4.667-2.667 6.667-6.667 6.667z"></path>
<path stroke-linejoin="round" stroke-linecap="round" stroke-miterlimit="10" stroke-width="2" d="M22.667 12l-4.173 3.333c-1.373 1.093-3.627 1.093-5 0l-4.16-3.333"></path>
</symbol>
<symbol id="icon-minus" viewBox="0 0 32 32">
<path stroke-linejoin="round" stroke="#173D33" stroke-linecap="round" stroke-miterlimit="4" stroke-width="3" d="M8 16h16"></path>
</symbol>
<symbol id="icon-add" viewBox="0 0 32 32">
<path fill="none" stroke="#97d28b" style="stroke: var(--color1, #97d28b)" stroke-linejoin="round" stroke-linecap="round" stroke-miterlimit="4" stroke-width="1.7143" d="M8 16h16M16 24v-16"></path>
</symbol>
</defs>
</svg>
